<svg xmlns="http://www.w3.org/2000/svg" version="1.1" xmlns:xlink="http://www.w3.org/1999/xlink" width="1000" height="1000"><g clip-path="url(#SvgjsClipPath1016)"><rect width="1000" height="1000" fill="#ffffff"></rect><g transform="matrix(2.004017138240051,0,0,2.004017138240051,150,216.4883254692031)"><svg xmlns="http://www.w3.org/2000/svg" version="1.1" xmlns:xlink="http://www.w3.org/1999/xlink" width="349.29841" height="282.9433632286995"><svg viewBox="0 0 349.29841 282.9433632286995" xmlns:xlink="http://www.w3.org/1999/xlink" xmlns="http://www.w3.org/2000/svg" data-name="Layer 1" id="Layer_1" style="max-height: 500px" width="349.29841" height="282.9433632286995">
  <defs>
    <style>
      .cls-1 {
        fill: #231f20;
      }

      .cls-2 {
        fill: url(#linear-gradient);
      }
    </style>
    <linearGradient gradientUnits="userSpaceOnUse" y2="137.77" x2="343.65" y1="137.77" x1="0" id="linear-gradient">
      <stop stop-color="#600" offset="0"></stop>
      <stop stop-color="#9d151d" offset=".51"></stop>
      <stop stop-color="#ed1c24" offset="1"></stop>
    </linearGradient>
  <clipPath id="SvgjsClipPath1016"><rect width="1000" height="1000" x="0" y="0" rx="350" ry="350"></rect></clipPath></defs>
  <path d="M101.85,0L0,275.53l117.97-16.52L200.27,36.38,101.85,0ZM313.38,0l-103.23,36.39,21.85,122.15,111.65,27.44L313.38,0Z" class="cls-2"></path>
  <path d="M445.79,91.53h43.82l-21.91-63.68-21.91,63.68ZM508.65,147.21l-11.26-32.76h-59.38l-11.26,32.76h-31.12L449.68,3.07h36.04l54.05,144.14h-31.12Z" class="cls-1"></path>
  <polygon points="549.6 147.21 549.6 3.07 590.55 3.07 646.24 121.01 646.24 3.07 674.09 3.07 674.09 147.21 633.13 147.21 577.45 29.28 577.45 147.21 549.6 147.21" class="cls-1"></polygon>
  <path d="M734.08,91.53h43.82l-21.91-63.68-21.91,63.68ZM796.93,147.21l-11.26-32.76h-59.38l-11.26,32.76h-31.12L737.96,3.07h36.04l54.05,144.14h-31.12Z" class="cls-1"></path>
  <polygon points="837.88 147.21 837.88 3.07 878.83 3.07 934.52 121.01 934.52 3.07 962.37 3.07 962.37 147.21 921.42 147.21 865.73 29.28 865.73 147.21 837.88 147.21" class="cls-1"></polygon>
  <polygon points="978.75 3.07 1086.85 3.07 1086.85 27.64 1046.72 27.64 1046.72 147.22 1018.88 147.22 1018.88 27.64 978.75 27.64 978.75 3.07" class="cls-1"></polygon>
  <path d="M1162.2,27.85l21.91,63.68h-43.81l21.9-63.68ZM1144.18,3.07l-54.05,144.14h31.12l11.26-32.77h59.38l11.26,32.77h31.12L1180.22,3.07h-36.04Z" class="cls-1"></path>
  <path d="M408.74,181.36v42.91h21.61c15.2,0,23.69-9.24,23.69-21.46,0-13.56-8.49-21.46-23.69-21.46h-21.61ZM469.54,275.53h-15.05l-24.44-40.53h-21.31v40.53h-13.11v-104.91h31.89c29.21,0,39.64,13.71,39.64,32.19,0,14.9-7.9,26.52-23.69,30.69l26.08,42.02Z" class="cls-1"></path>
  <polygon points="486.23 170.63 486.23 275.53 550.6 275.53 550.6 264.8 499.34 264.8 499.34 228.44 541.07 228.44 541.07 217.71 499.34 217.71 499.34 181.35 550.6 181.35 550.6 170.63 486.23 170.63" class="cls-1"></polygon>
  <path d="M606.63,180.16l20.86,58.41h-41.73l20.86-58.41ZM597.09,170.63l-39.34,104.9h14.91l9.38-26.22h49.17l9.39,26.22h14.9l-39.34-104.9h-19.08Z" class="cls-1"></path>
  <polygon points="665.05 170.63 665.05 275.53 727.04 275.53 727.04 264.8 678.16 264.8 678.16 170.63 665.05 170.63" class="cls-1"></polygon>
  <polygon points="736.58 170.63 736.58 181.35 766.97 181.35 766.97 275.53 780.09 275.53 780.09 181.35 810.49 181.35 810.49 170.63 736.58 170.63" class="cls-1"></polygon>
  <polygon points="890.36 170.63 860.56 219.05 830.75 170.63 815.26 170.63 854 230.83 854 275.53 867.11 275.53 867.11 230.83 905.86 170.63 890.36 170.63" class="cls-1"></polygon>
</svg></svg></g></g></svg>