<svg viewBox="0 0 669.13 244.54999999999998" xmlns="http://www.w3.org/2000/svg" id="Layer_2" style="max-height: 500px" width="669.13" height="244.54999999999998">
  <defs>
    <style>
      .cls-1 {
        fill: #404041;
      }

      .cls-2 {
        fill: #f37920;
      }

      .cls-3 {
        fill: #204f41;
      }
    </style>
  </defs>
  <g data-name="Layer_1" id="Layer_1-2">
    <g>
      <path d="M80.73,103.01c8.87-5.18,13.51-14.59,13.51-24.53,0-19.05-13.22-33.94-40.01-33.94H0v133.3h56.86c31.67,0,47.27-18.52,47.27-41.62,0-15.3-7.98-28.1-23.4-33.22M26.14,67.23h24.71c13.87,0,17.92,7.14,17.92,14.77s-5.3,15.3-18.1,15.3h-24.53v-30.07ZM54.59,155.46h-28.46v-39.47h28.58c17.98,0,23.34,9.05,23.34,19.17,0,10.66-6.91,20.3-23.46,20.3" class="cls-3"/>
      <polygon points="189.33 44.55 189.33 96.4 140.27 96.4 140.27 44.55 112.7 44.55 112.7 177.85 140.27 177.85 140.27 118.13 189.33 118.13 189.33 177.85 216.89 177.85 216.89 44.55 189.33 44.55" class="cls-3"/>
      <path d="M307.74,44.55v83.53c0,16.31-9.11,27.57-25.12,27.57s-25.18-11.25-25.18-27.57V44.55h-27.39v81.92c0,33.4,20.6,54,52.57,54s52.63-20.6,52.63-54V44.55h-27.5Z" class="cls-3"/>
      <polygon points="513.74 177.85 484.98 177.85 461.53 69.07 453.67 69.07 442.6 120.88 412.27 120.88 428.6 44.55 481.77 44.55 513.74 177.85" class="cls-3"/>
      <polygon points="440.63 129.92 430.39 177.85 377.22 177.85 345.25 44.55 374.07 44.55 397.53 153.32 405.33 153.32 410.33 129.92 440.63 129.92" class="cls-3"/>
      <polygon points="597.21 44.55 599 144.09 597.03 144.09 555.48 44.55 522.31 44.55 522.31 178.33 547.14 178.33 545.71 74.85 547.5 74.85 592.03 178.33 624.6 178.33 624.6 44.55 597.21 44.55" class="cls-3"/>
      <polygon points="440.63 129.92 410.33 129.92 412.27 120.88 442.6 120.88 440.63 129.92" class="cls-2"/>
      <rect height="49.42" width="19.85" y="28.6" x="640.54" class="cls-2"/>
      <rect height="19.85" width="49.42" y="8.75" x="591.12" class="cls-2"/>
      <rect height="15.93" width="15.93" y="8.75" x="644.46" class="cls-2"/>
      <polygon points="669.13 78.02 666.06 78.02 666.06 3.07 591.12 3.07 591.12 0 669.13 0 669.13 78.02" class="cls-2"/>
      <g>
        <path d="M192.28,203.21v35.98h-7.86v-35.98h7.86Z" class="cls-1"/>
        <path d="M249.67,227.4h.1v-24.18h7.91v35.98h-7.91l-20.26-24.18h-.1v24.18h-7.86v-35.98h7.86l20.25,24.18Z" class="cls-1"/>
        <path d="M317,223.87h-22.17v15.32h-7.86v-35.98h31.09v6.45h-23.23v7.76h22.17v6.45Z" class="cls-1"/>
        <path d="M345.84,239.19v-35.98h21.67c8.21,0,13.7,4.69,13.7,11.64,0,4.99-2.82,8.77-7.36,10.38l8.06,13.96h-8.21l-7.51-12.95h-12.5v12.95h-7.86ZM368.06,219.79c3.12,0,5.24-2.02,5.24-4.99s-2.32-5.14-5.79-5.14h-13.81v10.13h14.36Z" class="cls-1"/>
        <path d="M433.32,203.21l16.68,35.98h-7.96l-3.68-7.81h-18.09l-3.63,7.81h-8.01l16.68-35.98h8.01ZM435.69,225.53l-6.35-13.7-6.4,13.7h12.75Z" class="cls-1"/>
      </g>
    </g>
  </g>
</svg>